<svg width="83" height="83" viewBox="0 0 83 83" fill="none" xmlns="http://www.w3.org/2000/svg">
<path d="M4.49193 68.4417C4.37084 68.5706 4.27318 68.7112 4.20287 68.8831L0.222374 78.7815C-0.238566 79.9299 0.0309641 81.2424 0.902064 82.1096C1.4919 82.6994 2.28096 83.008 3.08176 83.008C3.47238 83.008 3.86301 82.9377 4.23016 82.7893L14.1286 78.8088C14.3004 78.7385 14.4372 78.6369 14.57 78.5197C14.5895 78.508 14.609 78.5002 14.6208 78.4885L47.8008 45.9185C48.0625 45.9966 48.332 46.0474 48.6015 46.0474C49.3125 46.0474 50.0312 45.7778 50.5703 45.2271L50.9414 44.856C51.1406 45.2349 51.3711 45.5943 51.6914 45.9146C52.5313 46.7427 53.6211 47.1646 54.7226 47.1646C55.8241 47.1646 56.914 46.7427 57.7538 45.9146L78.6948 24.9736C79.4644 24.204 79.894 23.1728 79.894 22.083C79.894 20.9932 79.4643 19.9619 78.6948 19.1924L77.644 18.1416C78.4721 17.2822 78.9331 16.1533 78.9331 14.9502C78.9331 14.2197 78.7534 13.5283 78.4331 12.8994L81.6948 9.63768C83.4253 7.90718 83.4253 5.08687 81.6948 3.35647L79.6362 1.29787C77.9057 -0.432625 75.0854 -0.432625 73.355 1.29787L70.0933 4.55957C69.4644 4.23926 68.773 4.05957 68.0425 4.05957C66.812 4.05957 65.6519 4.54005 64.7808 5.41118L37.7688 32.4232C37.0188 33.1732 36.8001 34.2435 37.0774 35.1927L4.53442 68.3917C4.53442 68.3917 4.51488 68.4307 4.50317 68.4425L4.49193 68.4417ZM69.2029 7.55067L75.4724 13.8202C75.781 14.1288 75.9412 14.5311 75.9412 14.9608C75.9412 15.3905 75.7693 15.8006 75.4724 16.1014L48.6134 42.9604L40.0626 34.4096L66.9216 7.55057C67.531 6.94119 68.5935 6.94119 69.2107 7.55057L69.2029 7.55067ZM77.5232 3.44128L79.5818 5.49987C80.1404 6.05846 80.1404 6.98038 79.5818 7.53898L76.5037 10.6171L72.4139 6.52727L75.492 3.44917C76.0506 2.89058 76.9608 2.89058 77.5311 3.44917L77.5232 3.44128ZM76.5818 22.8713L55.6408 43.8123C55.1408 44.3123 54.3322 44.3123 53.8205 43.8123C53.3205 43.3123 53.3205 42.492 53.8205 41.992L75.5315 20.281L76.5706 21.3201C76.7816 21.531 76.8909 21.8005 76.8909 22.0896C76.8909 22.3787 76.7816 22.6599 76.5706 22.8591L76.5818 22.8713ZM3.01582 79.8983L6.14472 72.1092L10.9142 76.8787L3.12512 80.0076L3.01582 79.8983ZM45.4458 44.0393L13.5938 75.3093L7.71492 69.4304L38.9849 37.5784L45.4537 44.0472L45.4458 44.0393Z" fill="#4D4D4D"/>
</svg>
