<svg width="88" height="90" viewBox="0 0 88 90" fill="none" xmlns="http://www.w3.org/2000/svg">
<path fill-rule="evenodd" clip-rule="evenodd" d="M25.4688 35.7223V39.7575C25.4688 40.9216 24.9961 41.9763 24.2305 42.738C23.5742 43.3942 22.7032 43.8357 21.7344 43.9489V72.0189C22.7031 72.1282 23.5742 72.5735 24.2305 73.2298C24.9961 73.9954 25.4688 75.0501 25.4688 76.2103V80.2455H32.379V76.2103C32.379 75.0462 32.8516 73.9915 33.6173 73.2298C34.2735 72.5735 35.1446 72.1321 36.1134 72.0189V43.9489C35.1446 43.8395 34.2736 43.3942 33.6173 42.738C32.8517 41.9723 32.379 40.9177 32.379 39.7575V35.7223H25.4688ZM22.7422 39.7575C22.7422 40.1676 22.5742 40.5387 22.3047 40.8122C22.0351 41.0817 21.6602 41.2497 21.25 41.2497H7.37098C6.96082 41.2497 6.58973 41.0817 6.31628 40.8122C6.04675 40.5426 5.87878 40.1676 5.87878 39.7575V35.7223H22.7378V39.7575H22.7422ZM19.0078 43.9763H9.61718V71.9923H19.0078V43.9763ZM6.89078 43.9489C5.92203 43.8395 5.05098 43.3942 4.39468 42.738C3.62906 41.9724 3.15638 40.9177 3.15638 39.7575V35.7028C2.33216 35.6169 1.58998 35.2458 1.03528 34.6911C0.39856 34.0544 0.00407982 33.1794 0.00407982 32.2106V29.4762C0.00407982 28.5075 0.39861 27.6324 1.03528 26.9957C1.41809 26.6129 1.89075 26.316 2.41808 26.1442V22.0895C2.41808 21.3199 2.62902 20.6012 3.01574 19.984C3.40246 19.3629 3.96105 18.859 4.65244 18.5192L41.7974 0.41016C42.3599 0.13672 42.9458 0 43.5357 0C44.1295 0 44.7115 0.13672 45.274 0.41016L82.426 18.5232C83.1175 18.8591 83.676 19.3669 84.0627 19.988C84.4495 20.6052 84.6604 21.3278 84.6604 22.0935V26.1482C85.1877 26.3239 85.6565 26.6169 86.0432 26.9997C86.6799 27.6364 87.0744 28.5114 87.0744 29.4802V32.2146C87.0744 33.1795 86.6799 34.0584 86.0432 34.6951C85.4885 35.2498 84.7463 35.6209 83.9221 35.7068V39.7615C83.9221 40.9256 83.4494 41.9803 82.6838 42.742C82.0275 43.3983 81.1565 43.8397 80.1877 43.9529V72.0229C81.1565 72.1323 82.0275 72.5776 82.6838 73.2338C83.4494 73.9994 83.9221 75.0541 83.9221 76.2143V80.269C84.7463 80.355 85.4885 80.726 86.0432 81.2807C86.6799 81.9174 87.0744 82.7924 87.0744 83.7612V86.4956C87.0744 87.4605 86.6799 88.3394 86.0432 88.9761C85.4065 89.6128 84.5315 90.0073 83.5627 90.0073L3.5117 90.0034C2.54686 90.0034 1.6679 89.6089 1.0312 88.9722C0.39448 88.3355 0 87.4605 0 86.4917V83.7573C0 82.7925 0.39453 81.9135 1.0312 81.2768C1.58589 80.7221 2.3281 80.351 3.1523 80.2651V76.2104C3.1523 75.0463 3.62496 73.9916 4.3906 73.2299C5.04685 72.5737 5.9179 72.1322 6.8867 72.019V43.949L6.89078 43.9489ZM81.9338 25.9689V22.0939C81.9338 21.84 81.8713 21.6134 81.7541 21.4259C81.6369 21.2424 81.4611 21.0861 81.2346 20.9767L44.0826 2.85973C43.899 2.76989 43.7154 2.72692 43.5357 2.72692C43.356 2.72692 43.1724 2.7738 42.9888 2.85973L5.8408 20.9767C5.61424 21.0861 5.43846 21.2424 5.32127 21.4259C5.20408 21.6134 5.14158 21.84 5.14158 22.0939V25.9689H81.9338ZM54.6958 35.7189V39.7541C54.6958 40.9182 54.2231 41.9729 53.4575 42.7346C52.8012 43.3909 51.9302 43.8323 50.9614 43.9455V72.0155C51.9301 72.1249 52.8012 72.5702 53.4575 73.2264C54.2231 73.992 54.6958 75.0467 54.6958 76.2069V80.2421H61.606V76.2069C61.606 75.0428 62.0786 73.9881 62.8443 73.2264C63.5005 72.5702 64.3716 72.1287 65.3404 72.0155V43.9455C64.3716 43.8362 63.5006 43.3908 62.8443 42.7346C62.0787 41.969 61.606 40.9143 61.606 39.7541V35.7189H54.6958ZM51.9692 39.7541C51.9692 40.1643 51.8012 40.5354 51.5317 40.8088C51.2621 41.0784 50.8871 41.2463 50.477 41.2463H36.598C36.1878 41.2463 35.8167 41.0784 35.5433 40.8088C35.2737 40.5393 35.1058 40.1643 35.1058 39.7541V35.7189H51.9648V39.7541H51.9692ZM48.2348 43.9729H38.8442V71.9889H48.2348V43.9729ZM51.9692 80.2459H35.1102V76.2107C35.1102 75.8006 35.2781 75.4295 35.5477 75.156C35.8172 74.8865 36.1922 74.7185 36.6024 74.7185H50.4814C50.8915 74.7185 51.2626 74.8865 51.5361 75.156C51.8056 75.4255 51.9736 75.8005 51.9736 76.2107V80.2459H51.9692ZM81.1962 39.7579V35.7227H64.3372V39.7579C64.3372 40.1681 64.5052 40.5392 64.7747 40.8126C65.0442 41.0822 65.4192 41.2501 65.8294 41.2501H79.7084C80.1185 41.2501 80.4896 41.0822 80.7631 40.8126C81.0326 40.5431 81.2006 40.1681 81.2006 39.7579H81.1962ZM77.4618 43.9767H68.0712V71.9927H77.4618V43.9767ZM81.1962 80.2497V76.2145C81.1962 75.8044 81.0282 75.4333 80.7587 75.1598C80.4892 74.8903 80.1141 74.7223 79.704 74.7223H65.825C65.4148 74.7223 65.0437 74.8903 64.7703 75.1598C64.5007 75.4294 64.3328 75.8043 64.3328 76.2145V80.2497H81.1962ZM22.7472 80.2497L5.88018 80.2458V76.2106C5.88018 75.8004 6.04815 75.4294 6.31768 75.1559C6.58721 74.8864 6.96221 74.7184 7.37238 74.7184H21.2514C21.6615 74.7184 22.0326 74.8864 22.3061 75.1559C22.5756 75.4254 22.7436 75.8004 22.7436 76.2106V80.2458L22.7472 80.2497ZM83.5632 28.6987L3.51218 28.6948C3.29734 28.6948 3.10202 28.7847 2.9614 28.9253C2.82078 29.0698 2.73093 29.2651 2.73093 29.4761V32.2105C2.73093 32.4253 2.82077 32.6206 2.9614 32.7612C3.10203 32.9019 3.30124 32.9917 3.51218 32.9917H83.5592C83.774 32.9917 83.9693 32.9019 84.11 32.7612C84.2506 32.6206 84.3404 32.4214 84.3404 32.2105V29.4761C84.3404 29.2612 84.2506 29.0659 84.11 28.9253C83.9654 28.7847 83.7701 28.6948 83.5592 28.6948L83.5632 28.6987ZM83.5632 82.9757H3.51218C3.29734 82.9757 3.10202 83.0656 2.9614 83.2062C2.82078 83.3468 2.73093 83.546 2.73093 83.757V86.4914C2.73093 86.7062 2.82077 86.9015 2.9614 87.0421C3.10203 87.1828 3.30124 87.2726 3.51218 87.2726H83.5592C83.774 87.2726 83.9693 87.1828 84.11 87.0421C84.2506 86.9015 84.3404 86.7023 84.3404 86.4914V83.757C84.3404 83.5421 84.2506 83.3468 84.11 83.2062C83.9693 83.0656 83.7701 82.9757 83.5592 82.9757H83.5632Z" fill="#4D4D4D"/>
</svg>
