<svg width="56" height="64" viewBox="0 0 56 64" fill="none" xmlns="http://www.w3.org/2000/svg">
<path d="M25.1289 19.5256H6.37597C5.06738 19.5256 4.00195 20.6516 4.00195 22.0354V31.6448C4.00195 33.0286 5.06738 34.1546 6.37597 34.1546H25.1289C26.4375 34.1546 27.502 33.0286 27.502 31.6448V22.0354C27.502 20.6516 26.4375 19.5256 25.1289 19.5256ZM26.002 31.6448C26.002 32.2014 25.6104 32.6545 25.1289 32.6545H6.37597C5.89452 32.6545 5.50195 32.2014 5.50195 31.6448V22.0354C5.50195 21.4788 5.89453 21.0256 6.37597 21.0256H25.1289C25.6104 21.0256 26.002 21.4788 26.002 22.0354V31.6448Z" fill="#4D4D4D"/>
<path d="M16.9873 37.0085H14.5176C13.5527 37.0085 12.7676 37.7937 12.7676 38.7585V41.6072C12.7676 42.572 13.5527 43.3572 14.5176 43.3572H16.9873C17.9521 43.3572 18.7373 42.572 18.7373 41.6072V38.7585C18.7373 37.7937 17.9521 37.0085 16.9873 37.0085ZM17.2373 41.6072C17.2373 41.7449 17.125 41.8572 16.9873 41.8572H14.5176C14.3799 41.8572 14.2676 41.7449 14.2676 41.6072V38.7586C14.2676 38.6209 14.3799 38.5086 14.5176 38.5086H16.9873C17.125 38.5086 17.2373 38.6209 17.2373 38.7586V41.6072Z" fill="#4D4D4D"/>
<path d="M24.6045 37.0085H22.1309C21.166 37.0085 20.3809 37.7937 20.3809 38.7585V41.6072C20.3809 42.572 21.166 43.3572 22.1309 43.3572H24.6045C25.5693 43.3572 26.3545 42.572 26.3545 41.6072V38.7585C26.3545 37.7937 25.5693 37.0085 24.6045 37.0085ZM24.8545 41.6072C24.8545 41.7449 24.7422 41.8572 24.6045 41.8572H22.1309C21.9932 41.8572 21.8809 41.7449 21.8809 41.6072V38.7586C21.8809 38.6209 21.9932 38.5086 22.1309 38.5086H24.6045C24.7422 38.5086 24.8545 38.6209 24.8545 38.7586V41.6072Z" fill="#4D4D4D"/>
<path d="M9.37402 37.0085H6.90039C5.93555 37.0085 5.15039 37.7937 5.15039 38.7585V41.6072C5.15039 42.572 5.93555 43.3572 6.90039 43.3572H9.37402C10.3389 43.3572 11.124 42.572 11.124 41.6072V38.7585C11.124 37.7937 10.3389 37.0085 9.37402 37.0085ZM9.62402 41.6072C9.62402 41.7449 9.51172 41.8572 9.37402 41.8572H6.90039C6.76269 41.8572 6.65039 41.7449 6.65039 41.6072V38.7586C6.65039 38.6209 6.76269 38.5086 6.90039 38.5086H9.37402C9.51172 38.5086 9.62402 38.6209 9.62402 38.7586V41.6072Z" fill="#4D4D4D"/>
<path d="M16.9873 44.8425H14.5176C13.5527 44.8425 12.7676 45.6277 12.7676 46.5925V49.4416C12.7676 50.4065 13.5527 51.1916 14.5176 51.1916H16.9873C17.9521 51.1916 18.7373 50.4065 18.7373 49.4416V46.5925C18.7373 45.6277 17.9521 44.8425 16.9873 44.8425ZM17.2373 49.4416C17.2373 49.5793 17.125 49.6916 16.9873 49.6916H14.5176C14.3799 49.6916 14.2676 49.5793 14.2676 49.4416V46.5925C14.2676 46.4548 14.3799 46.3425 14.5176 46.3425H16.9873C17.125 46.3425 17.2373 46.4548 17.2373 46.5925V49.4416Z" fill="#4D4D4D"/>
<path d="M24.6045 44.8425H22.1309C21.166 44.8425 20.3809 45.6277 20.3809 46.5925V49.4416C20.3809 50.4065 21.166 51.1916 22.1309 51.1916H24.6045C25.5693 51.1916 26.3545 50.4065 26.3545 49.4416V46.5925C26.3545 45.6277 25.5693 44.8425 24.6045 44.8425ZM24.8545 49.4416C24.8545 49.5793 24.7422 49.6916 24.6045 49.6916H22.1309C21.9932 49.6916 21.8809 49.5793 21.8809 49.4416V46.5925C21.8809 46.4548 21.9932 46.3425 22.1309 46.3425H24.6045C24.7422 46.3425 24.8545 46.4548 24.8545 46.5925V49.4416Z" fill="#4D4D4D"/>
<path d="M9.37402 44.8425H6.90039C5.93555 44.8425 5.15039 45.6277 5.15039 46.5925V49.4416C5.15039 50.4065 5.93555 51.1916 6.90039 51.1916H9.37402C10.3389 51.1916 11.124 50.4065 11.124 49.4416V46.5925C11.124 45.6277 10.3389 44.8425 9.37402 44.8425ZM9.62402 49.4416C9.62402 49.5793 9.51172 49.6916 9.37402 49.6916H6.90039C6.76269 49.6916 6.65039 49.5793 6.65039 49.4416V46.5925C6.65039 46.4548 6.76269 46.3425 6.90039 46.3425H9.37402C9.51172 46.3425 9.62402 46.4548 9.62402 46.5925V49.4416Z" fill="#4D4D4D"/>
<path d="M16.9873 52.677H14.5176C13.5527 52.677 12.7676 53.4622 12.7676 54.427V57.2756C12.7676 58.2405 13.5527 59.0256 14.5176 59.0256H16.9873C17.9521 59.0256 18.7373 58.2405 18.7373 57.2756V54.427C18.7373 53.4622 17.9521 52.677 16.9873 52.677ZM17.2373 57.2756C17.2373 57.4133 17.125 57.5256 16.9873 57.5256H14.5176C14.3799 57.5256 14.2676 57.4133 14.2676 57.2756V54.427C14.2676 54.2893 14.3799 54.177 14.5176 54.177H16.9873C17.125 54.177 17.2373 54.2893 17.2373 54.427V57.2756Z" fill="#4D4D4D"/>
<path d="M24.6045 52.677H22.1309C21.166 52.677 20.3809 53.4622 20.3809 54.427V57.2756C20.3809 58.2405 21.166 59.0256 22.1309 59.0256H24.6045C25.5693 59.0256 26.3545 58.2405 26.3545 57.2756V54.427C26.3545 53.4622 25.5693 52.677 24.6045 52.677ZM24.8545 57.2756C24.8545 57.4133 24.7422 57.5256 24.6045 57.5256H22.1309C21.9932 57.5256 21.8809 57.4133 21.8809 57.2756V54.427C21.8809 54.2893 21.9932 54.177 22.1309 54.177H24.6045C24.7422 54.177 24.8545 54.2893 24.8545 54.427V57.2756Z" fill="#4D4D4D"/>
<path d="M9.37402 52.677H6.90039C5.93555 52.677 5.15039 53.4622 5.15039 54.427V57.2756C5.15039 58.2405 5.93555 59.0256 6.90039 59.0256H9.37402C10.3389 59.0256 11.124 58.2405 11.124 57.2756V54.427C11.124 53.4622 10.3389 52.677 9.37402 52.677ZM9.62402 57.2756C9.62402 57.4133 9.51172 57.5256 9.37402 57.5256H6.90039C6.76269 57.5256 6.65039 57.4133 6.65039 57.2756V54.427C6.65039 54.2893 6.76269 54.177 6.90039 54.177H9.37402C9.51172 54.177 9.62402 54.2893 9.62402 54.427V57.2756Z" fill="#4D4D4D"/>
<path d="M10.1426 7.61938H21.3584C21.7725 7.61938 22.1084 7.28344 22.1084 6.86938C22.1084 6.45532 21.7725 6.11938 21.3584 6.11938H10.1426C9.72852 6.11938 9.39258 6.45532 9.39258 6.86938C9.39258 7.28344 9.72852 7.61938 10.1426 7.61938Z" fill="#4D4D4D"/>
<path d="M10.1426 12.1458H21.3584C21.7725 12.1458 22.1084 11.8098 22.1084 11.3958C22.1084 10.9817 21.7725 10.6458 21.3584 10.6458H10.1426C9.72852 10.6458 9.39258 10.9817 9.39258 11.3958C9.39258 11.8098 9.72852 12.1458 10.1426 12.1458Z" fill="#4D4D4D"/>
<path d="M27.0303 0.29224C26.9268 0.15796 26.7861 0.0681199 26.6338 0.0266099C26.6338 0.0266099 26.6328 0.0266099 26.6328 0.0261199C26.5889 0.0143999 26.544 0.00658978 26.499 0.00267978C26.3369 -0.00953022 26.1514 0.0324699 26 0.14038C26 0.14038 25.999 0.14087 25.999 0.14136L23.7627 1.74927L21.5264 0.14136C21.2646 -0.04712 20.9121 -0.04712 20.6504 0.14136L18.416 1.74878L16.1856 0.14185C15.9238 -0.0466301 15.5703 -0.04711 15.3086 0.14136L13.0752 1.74878L10.8438 0.14185C10.582 -0.0466301 10.2285 -0.04711 9.9668 0.14136L7.73438 1.74878L5.50977 0.14673C5.44727 0.10083 5.37793 0.0642099 5.30372 0.0393099C5.30372 0.0393099 5.30372 0.03882 5.30274 0.03882C5.20899 0.00805999 5.11231 -0.0026801 5.01856 0.0017099C4.91211 0.0080599 4.81153 0.03687 4.72071 0.08325C4.63184 0.12915 4.55079 0.1936 4.48341 0.27563C4.42677 0.34497 4.38282 0.42407 4.35353 0.51049C4.35353 0.51098 4.35353 0.51147 4.35353 0.51195C4.32716 0.58959 4.31447 0.66966 4.31447 0.74974C4.31447 0.75267 4.31447 0.75609 4.31447 0.75902V11.4983H2.5625C1.14941 11.4983 0 12.6477 0 14.0608V60.9377C0 62.3508 1.14941 63.5002 2.5625 63.5002H28.9424C30.3555 63.5002 31.5049 62.3508 31.5049 60.9377V35.8069H52.9209C54.332 35.8069 55.4795 34.6565 55.4795 33.2424C55.4795 30.062 55.4795 22.4956 55.4795 19.0784C55.4795 17.6638 54.332 16.5134 52.9209 16.5134H31.5049V14.0608C31.5049 12.6477 30.3555 11.4983 28.9424 11.4983H27.1865V0.75855C27.1885 0.60865 27.1455 0.45728 27.0547 0.32496L27.0537 0.32447C27.0469 0.31422 27.0391 0.30347 27.0312 0.29371C27.0312 0.29322 27.0303 0.29224 27.0303 0.29224ZM5.81446 2.21461L7.29591 3.2815C7.55763 3.46998 7.91114 3.46949 8.17286 3.28199L10.4053 1.67457L12.6367 3.2815C12.8985 3.46998 13.252 3.47046 13.5137 3.28199L15.7471 1.67457L17.9776 3.2815C18.2393 3.46998 18.5928 3.47046 18.8545 3.28199L21.0889 1.67408L23.3252 3.28199C23.5869 3.47047 23.9385 3.47047 24.2002 3.28199L25.6865 2.21363C25.6865 6.2772 25.6865 11.6062 25.6865 15.6536H5.81446C5.81446 11.6041 5.81446 6.27683 5.81446 2.21461ZM53.9795 26.5696H31.5049V22.8923H53.9795V26.5696ZM52.9209 34.3069H31.5049V28.0696H53.9795V33.2424C53.9795 33.8293 53.5049 34.3069 52.9209 34.3069ZM52.9209 18.0134C53.5049 18.0134 53.9795 18.491 53.9795 19.0784V21.3923H31.5049V18.0134L52.9209 18.0134ZM28.9424 12.9983C29.5283 12.9983 30.0049 13.4749 30.0049 14.0608C30.0042 44.4491 30.0039 27.146 30.0049 60.9377C30.0049 61.5237 29.5283 62.0003 28.9424 62.0003H2.5625C1.97656 62.0003 1.5 61.5237 1.5 60.9377V14.0608C1.5 13.4749 1.97656 12.9983 2.5625 12.9983H4.31445V15.6555H3.4707C3.05664 15.6555 2.7207 15.9915 2.7207 16.4055C2.7207 16.8196 3.05664 17.1555 3.4707 17.1555H28.0342C28.4482 17.1555 28.7842 16.8196 28.7842 16.4055C28.7842 15.9915 28.4482 15.6555 28.0342 15.6555H27.1865V12.9983H28.9424Z" fill="#4D4D4D"/>
</svg>
