<svg width="87" height="71" viewBox="0 0 87 71" fill="none" xmlns="http://www.w3.org/2000/svg">
<path d="M2.4492 16.5666H0V20.4338H10.137C10.8206 20.4338 11.4495 20.1526 11.9026 19.6994C12.3557 19.2463 12.637 18.6213 12.637 17.9338V16.5666L2.4492 16.5666ZM64.1722 27.9296C64.1722 27.1015 64.8441 26.4296 65.6722 26.4296C66.5003 26.4296 67.1722 27.1015 67.1722 27.9296V30.3241C67.1722 31.1522 66.5003 31.8241 65.6722 31.8241C64.8441 31.8241 64.1722 31.1522 64.1722 30.3241V27.9296ZM35.7892 32.371C34.9103 31.5194 33.879 31.0663 32.6525 31.0507C31.4572 31.0663 30.3947 31.5468 29.6095 32.328C28.8478 33.1053 28.3751 34.1444 28.3595 35.4061C28.379 36.578 28.8361 37.6092 29.6525 38.453C30.4142 39.1913 31.4064 39.6405 32.5002 39.6874C32.5588 39.6796 32.6213 39.6757 32.6838 39.6757C32.7463 39.6757 32.8088 39.6796 32.8713 39.6874C33.926 39.6405 34.883 39.2265 35.6057 38.5624C35.6448 38.5077 35.6916 38.4608 35.7385 38.414L35.8596 38.3046C36.5588 37.5468 36.9924 36.5429 37.008 35.3358C36.9885 34.1639 36.5314 33.1366 35.7971 32.3749L35.7892 32.371ZM36.6798 29.246L38.0196 27.9062C38.6056 27.3203 39.5548 27.3203 40.1407 27.9062C40.7267 28.4921 40.7267 29.4414 40.1407 30.0273L38.8009 31.3671C39.2931 32.1171 39.6486 32.9648 39.84 33.871H41.7306C42.5587 33.871 43.2306 34.5429 43.2306 35.371C43.2306 36.1991 42.5587 36.871 41.7306 36.871H39.84C39.6525 37.7772 39.2931 38.6249 38.8009 39.3749L40.1329 40.7069C40.7189 41.2928 40.7189 42.2421 40.1329 42.828C39.547 43.4139 38.5977 43.4139 38.0118 42.828L36.6798 41.496C35.9298 41.9921 35.0821 42.3515 34.172 42.539V44.4179C34.172 45.246 33.5001 45.9179 32.672 45.9179C31.8439 45.9179 31.172 45.246 31.172 44.4179V42.539C30.2619 42.3515 29.4181 41.9921 28.6642 41.4999L27.3283 42.8358C26.7424 43.4217 25.7931 43.4217 25.2072 42.8358C24.6213 42.2499 24.6213 41.3006 25.2072 40.7147L26.5431 39.3788C26.0509 38.6288 25.6955 37.7811 25.504 36.871H23.6134C22.7853 36.871 22.1134 36.1991 22.1134 35.371C22.1134 34.5429 22.7853 33.871 23.6134 33.871H25.504C25.6915 32.9608 26.0548 32.1171 26.5431 31.3671L25.2033 30.0273C24.6174 29.4414 24.6174 28.4921 25.2033 27.9062C25.7893 27.3203 26.7385 27.3203 27.3244 27.9062L28.6642 29.246C29.4142 28.7538 30.2619 28.3983 31.1681 28.2069V26.3163C31.1681 25.4882 31.84 24.8163 32.6681 24.8163C33.4962 24.8163 34.1681 25.4882 34.1681 26.3163V28.2069C35.0744 28.3944 35.922 28.7577 36.672 29.246H36.6798ZM65.6718 20.8476C67.8632 20.8476 69.8554 21.7382 71.289 23.1757L71.375 23.2695C72.7617 24.6992 73.6172 26.6522 73.6172 28.7967C73.6172 30.3319 73.1757 31.7734 72.4141 32.9921C71.8008 33.9764 70.9766 34.8124 70.0039 35.4491V46.3871C70.0039 47.348 69.6093 48.2268 68.9687 48.8675C68.328 49.5082 67.4492 49.8988 66.4921 49.8988H64.8515C63.8905 49.8988 63.0156 49.5042 62.3749 48.8635C61.7342 48.2229 61.3437 47.344 61.3437 46.3869V35.4489C60.371 34.8161 59.5429 33.9763 58.9335 32.992C58.1717 31.7693 57.7304 30.3317 57.7304 28.7966C57.7304 26.6052 58.621 24.6208 60.0585 23.1833C61.496 21.7419 63.4804 20.8475 65.6757 20.8475L65.6718 20.8476ZM69.1679 25.2968C68.2734 24.4023 67.039 23.8476 65.6718 23.8476C64.3085 23.8476 63.0663 24.4023 62.1757 25.2968C61.2812 26.1874 60.7265 27.4257 60.7265 28.7929C60.7265 29.7577 61 30.6523 61.4687 31.4101C61.9375 32.1601 62.6015 32.7773 63.3828 33.1874C63.9453 33.4062 64.3398 33.9491 64.3398 34.5858V46.3868C64.3398 46.5313 64.3984 46.6602 64.4844 46.7462C64.5781 46.8399 64.707 46.8946 64.8516 46.8946H66.4922C66.6367 46.8946 66.7656 46.836 66.8515 46.7501C66.9453 46.6563 67 46.5274 67 46.3829V34.5819C67.0078 34.0311 67.3164 33.4999 67.8437 33.2421C68.6718 32.8358 69.3749 32.1991 69.8671 31.4101C70.3398 30.6562 70.6093 29.7578 70.6093 28.7929C70.6093 27.4609 70.082 26.2499 69.1601 25.2968H69.1679ZM32.6759 19.664C37.004 19.664 40.9337 21.4257 43.7779 24.2695C46.6217 27.1093 48.3834 31.039 48.3834 35.3715C48.3834 39.7074 46.6217 43.6371 43.7818 46.4765L43.692 46.5585C40.8522 49.3515 36.9615 51.078 32.676 51.078C28.3401 51.078 24.4104 49.3163 21.571 46.4764C18.7312 43.6366 16.9694 39.7069 16.9694 35.3714C16.9694 31.0355 18.7311 27.1058 21.571 24.2664C24.4108 21.4266 28.3404 19.664 32.6759 19.664ZM41.6603 26.3828C39.3634 24.0859 36.1876 22.664 32.6759 22.664C29.1642 22.664 25.9884 24.0898 23.6915 26.3867C21.3946 28.6836 19.9688 31.8633 19.9688 35.3711C19.9688 38.8828 21.3946 42.0586 23.6915 44.3555C25.9884 46.6524 29.1681 48.0782 32.6759 48.0782C36.1525 48.0782 39.3048 46.6837 41.6251 44.3946C43.961 42.0587 45.3829 38.879 45.3829 35.3712C45.3829 31.8595 43.9572 28.6836 41.6603 26.3828ZM3.90632 47.3048H8.72272V23.4378H3.90632V47.3048ZM11.7227 47.3048H14.1329C14.961 47.3048 15.6329 47.9767 15.6329 48.8048V51.672C15.6329 53.1876 15.0157 54.5626 14.0196 55.5587C13.3868 56.1915 12.6055 56.6681 11.7227 56.9376V64.0196H78.8517V10.2306C78.8517 9.26576 78.4572 8.3868 77.8205 7.7501C77.1838 7.11338 76.3049 6.7189 75.34 6.7189H15.235C14.2702 6.7189 13.3912 7.11343 12.7545 7.7501C12.1178 8.38291 11.7233 9.2618 11.7233 10.2306V13.5665H14.1335C14.9616 13.5665 15.6335 14.2384 15.6335 15.0665V17.9337C15.6335 19.4493 15.0163 20.8243 14.0202 21.8204C13.3874 22.4532 12.6061 22.9298 11.7233 23.1993L11.7227 47.3048ZM8.72272 57.172H3.90632V70.742H86.6723V0H3.90632V13.57H8.72272V10.2341C8.72272 8.4411 9.45319 6.8161 10.6329 5.6364C11.8126 4.4528 13.4415 3.7184 15.2345 3.7184H75.3395C77.1325 3.7184 78.7614 4.44887 79.9411 5.6286C81.1208 6.8083 81.8513 8.4372 81.8513 10.2302V65.5192C81.8513 66.3473 81.1794 67.0192 80.3513 67.0192H10.2223C9.3942 67.0192 8.72232 66.3473 8.72232 65.5192L8.72272 57.172ZM12.6329 50.3048H0.00392008V54.172H10.1409C10.8245 54.172 11.4534 53.8908 11.9065 53.4376C12.3596 52.9845 12.6409 52.3595 12.6409 51.672V50.3048L12.6329 50.3048Z" fill="white"/>
</svg>
