<svg width="79" height="79" viewBox="0 0 79 79" fill="none" xmlns="http://www.w3.org/2000/svg">
<path d="M45.8465 41.2382L37.116 32.5077C37.0145 32.4062 36.9559 32.2695 36.9559 32.1288C36.9559 31.9882 37.0145 31.8476 37.116 31.7499L64.124 4.73792C65.0147 3.83948 66.5732 3.8473 67.4756 4.73792L73.7451 11.0074C74.667 11.9293 74.667 13.4293 73.7451 14.359L70.6357 17.4684C70.3467 17.7575 70.3467 18.2379 70.6357 18.527C70.9248 18.8161 71.4053 18.8161 71.6943 18.527L73.2841 16.9372L74.8544 18.5075C75.5732 19.2263 75.5732 20.3981 74.8544 21.1091L53.9134 42.0501C53.1244 42.8392 51.8353 42.8392 51.0345 42.0501C50.2338 41.2611 50.2455 39.972 51.0345 39.179L61.6755 28.531C61.9646 28.242 61.9646 27.7615 61.6755 27.4724C61.3865 27.1834 60.906 27.1834 60.6169 27.4724L46.7259 41.3634C46.515 41.5744 46.1752 41.5744 45.9642 41.3634L45.8353 41.2345L45.8465 41.2382ZM65.2645 24.6362C65.4559 24.6362 65.6434 24.5659 65.7958 24.4175L67.6044 22.6089C67.8934 22.3198 67.8934 21.8394 67.6044 21.5503C67.3153 21.2612 66.8349 21.2612 66.5458 21.5503L64.7372 23.3589C64.4481 23.6479 64.4481 24.1284 64.7372 24.4175C64.8856 24.5659 65.077 24.6362 65.2684 24.6362H65.2645Z" fill="white"/>
<path d="M78.495 4.23822C78.495 4.81634 78.2645 5.36712 77.8544 5.78902L74.245 9.39842L69.0966 4.25002L72.706 0.64062C73.1161 0.23046 73.6669 0 74.2568 0C74.8466 0 75.3857 0.23047 75.8076 0.64062L77.8662 2.69922C78.2763 3.10938 78.5068 3.66016 78.5068 4.25002L78.495 4.23822Z" fill="white"/>
<path d="M36.7139 34.2383L44.2451 41.7578L29.1241 56.6168L21.8663 49.359L36.7139 34.2383Z" fill="white"/>
<path d="M20.8231 50.4373L28.0458 57.6678L11.3228 74.0778L4.40484 67.1598L20.8231 50.4373Z" fill="white"/>
<path d="M3.61617 68.4883L9.99506 74.8672L1.14346 78.4258C0.662993 78.6172 0.334876 78.3359 0.245026 78.2461C0.155182 78.1563 -0.12607 77.8164 0.0653305 77.3476L3.62393 68.496L3.61617 68.4883Z" fill="white"/>
</svg>
