<svg width="48" height="90" viewBox="0 0 48 90" fill="none" xmlns="http://www.w3.org/2000/svg">
<path d="M8.669 1.392H39.214C39.318 1.1 39.492 0.835 39.708 0.613C40.084 0.237 40.606 0 41.184 0H41.942C42.52 0 43.041 0.237 43.417 0.612C43.793 0.995 44.029 1.517 44.029 2.087V87.216H46.492C47.257 87.216 47.884 87.842 47.884 88.608V89.652C47.884 89.847 47.724 90 47.536 90H0.348C0.16 90 0 89.847 0 89.652V88.608C0 87.843 0.626 87.216 1.392 87.216H3.855V2.087C3.855 1.516 4.092 0.995 4.467 0.612C4.843 0.237 5.364 0 5.942 0H6.7C7.278 0 7.799 0.237 8.175 0.612C8.391 0.835 8.558 1.099 8.669 1.392ZM9.692 71.75C9.504 71.75 9.344 71.597 9.344 71.402C9.344 71.207 9.504 71.054 9.692 71.054H38.192C38.38 71.054 38.54 71.207 38.54 71.402C38.54 71.597 38.38 71.75 38.192 71.75H9.692ZM9.692 47.432C9.504 47.432 9.344 47.279 9.344 47.084C9.344 46.889 9.504 46.736 9.692 46.736H38.192C38.38 46.736 38.54 46.889 38.54 47.084C38.54 47.279 38.38 47.432 38.192 47.432H9.692ZM39.792 87.217V2.783H8.092V87.217H39.792ZM40.488 2.783V87.217H42.638V2.087C42.638 1.892 42.561 1.718 42.436 1.6C42.304 1.468 42.13 1.392 41.942 1.392H41.184C40.989 1.392 40.822 1.469 40.69 1.601C40.565 1.719 40.488 1.893 40.488 2.088V2.248V2.783ZM10.562 54.132C10.458 54.132 10.416 54.229 10.374 54.327L10.096 54.953C10.047 55.05 10.179 55.141 10.284 55.141H19.962C20.073 55.141 20.199 55.044 20.157 54.953L19.879 54.327C19.837 54.23 19.796 54.132 19.684 54.132H10.562ZM10.04 50.973H20.212C20.595 50.973 20.908 51.286 20.908 51.669V55.148C20.908 55.531 20.588 55.844 20.212 55.844H10.04C9.657 55.844 9.344 55.531 9.344 55.148V51.669C9.344 51.286 9.657 50.973 10.04 50.973ZM27.616 54.132C27.512 54.132 27.47 54.229 27.421 54.327L27.143 54.953C27.101 55.05 27.233 55.141 27.338 55.141H32.626C32.73 55.141 32.863 55.051 32.821 54.953L32.542 54.327C32.5 54.23 32.452 54.132 32.347 54.132H27.616ZM27.094 52.212H32.869C33.252 52.212 33.565 52.525 33.565 52.908V55.148C33.565 55.531 33.252 55.844 32.869 55.844H27.094C26.711 55.844 26.398 55.531 26.398 55.148V52.908C26.398 52.525 26.711 52.212 27.094 52.212ZM18.404 29.981C18.209 29.981 18.056 29.821 18.056 29.633C18.056 29.438 18.209 29.285 18.404 29.285H29.481C29.669 29.285 29.829 29.438 29.829 29.633C29.829 29.821 29.669 29.981 29.481 29.981H18.404ZM7.396 87.217V2.783V2.247V2.087C7.396 1.892 7.319 1.718 7.194 1.6C7.062 1.468 6.888 1.391 6.7 1.391H5.942C5.747 1.391 5.573 1.468 5.448 1.6C5.323 1.718 5.246 1.892 5.246 2.087V87.216L7.396 87.217ZM35.513 41.622C35.409 41.622 35.325 41.705 35.325 41.817V42.436C35.325 42.54 35.408 42.631 35.513 42.631H37.593C37.704 42.631 37.788 42.541 37.788 42.436V41.817C37.788 41.706 37.705 41.622 37.593 41.622H35.513ZM35.269 39.695H37.843C38.226 39.695 38.539 40.008 38.539 40.391V42.638C38.539 43.021 38.219 43.334 37.843 43.334H35.269C34.886 43.334 34.573 43.021 34.573 42.638V40.39C34.574 40.008 34.887 39.695 35.269 39.695ZM21.834 35.61C22.3 35.61 22.759 35.61 23.226 35.61C23.268 35.61 23.296 35.638 23.296 35.666C23.282 35.791 23.268 35.923 23.254 36.063C23.24 36.202 23.226 36.348 23.212 36.501C23.212 36.529 23.17 36.557 23.122 36.557C22.6 36.557 22.085 36.557 21.563 36.557C21.514 36.557 21.486 36.529 21.5 36.501C21.542 36.348 21.583 36.202 21.625 36.063C21.667 35.924 21.708 35.792 21.75 35.666C21.757 35.638 21.792 35.61 21.834 35.61ZM23.49 35.61C23.949 35.61 24.415 35.61 24.875 35.61C24.917 35.61 24.952 35.638 24.958 35.666C24.972 35.791 24.986 35.923 25.007 36.063C25.021 36.202 25.035 36.348 25.056 36.501C25.056 36.529 25.028 36.557 24.979 36.557C24.457 36.557 23.935 36.557 23.413 36.557C23.371 36.557 23.336 36.529 23.336 36.501C23.35 36.348 23.364 36.202 23.378 36.063C23.385 35.924 23.399 35.792 23.406 35.666C23.413 35.638 23.448 35.61 23.49 35.61ZM25.535 35.61C25.911 35.61 26.279 35.61 26.655 35.61C27.031 35.61 27.399 35.61 27.775 35.61C27.817 35.61 27.865 35.638 27.879 35.666C27.942 35.791 28.004 35.923 28.074 36.063C28.144 36.202 28.213 36.348 28.29 36.501C28.311 36.529 28.283 36.557 28.234 36.557C27.817 36.557 27.399 36.557 26.975 36.557C26.558 36.557 26.14 36.557 25.723 36.557C25.674 36.557 25.633 36.529 25.626 36.501C25.598 36.348 25.57 36.202 25.543 36.063C25.522 35.924 25.494 35.792 25.473 35.666C25.466 35.638 25.494 35.61 25.535 35.61ZM19.635 36.703C20.164 36.703 20.693 36.703 21.221 36.703C21.27 36.703 21.298 36.731 21.284 36.773C21.235 36.94 21.18 37.114 21.124 37.288C21.061 37.483 20.999 37.678 20.936 37.879C20.922 37.921 20.866 37.962 20.811 37.962C20.206 37.962 19.6 37.962 18.995 37.962C18.946 37.962 18.918 37.92 18.946 37.879C19.05 37.677 19.148 37.482 19.245 37.288C19.342 37.114 19.433 36.94 19.516 36.773C19.538 36.731 19.586 36.703 19.635 36.703ZM21.521 36.703C22.05 36.703 22.579 36.703 23.107 36.703C23.156 36.703 23.19 36.731 23.184 36.773C23.17 36.94 23.149 37.114 23.135 37.288C23.114 37.483 23.093 37.678 23.079 37.879C23.072 37.921 23.023 37.962 22.968 37.962C22.363 37.962 21.757 37.962 21.152 37.962C21.103 37.962 21.069 37.92 21.082 37.879C21.145 37.677 21.2 37.482 21.256 37.288C21.312 37.114 21.367 36.94 21.416 36.773C21.423 36.731 21.472 36.703 21.521 36.703ZM23.406 36.703C23.935 36.703 24.464 36.703 24.992 36.703C25.041 36.703 25.082 36.731 25.082 36.773C25.103 36.94 25.124 37.114 25.145 37.288C25.166 37.483 25.194 37.678 25.215 37.879C25.222 37.921 25.18 37.962 25.132 37.962C24.52 37.962 23.914 37.962 23.309 37.962C23.26 37.962 23.219 37.92 23.219 37.879C23.24 37.677 23.254 37.482 23.275 37.288C23.289 37.114 23.303 36.94 23.317 36.773C23.316 36.731 23.358 36.703 23.406 36.703ZM25.751 36.703C26.175 36.703 26.6 36.703 27.024 36.703C27.455 36.703 27.88 36.703 28.304 36.703C28.353 36.703 28.408 36.731 28.422 36.773C28.505 36.94 28.596 37.114 28.686 37.288C28.776 37.483 28.874 37.678 28.978 37.879C28.999 37.921 28.971 37.962 28.915 37.962C28.428 37.962 27.941 37.962 27.454 37.962C26.967 37.962 26.48 37.962 25.993 37.962C25.937 37.962 25.889 37.92 25.875 37.879C25.84 37.677 25.805 37.482 25.771 37.288C25.736 37.114 25.708 36.94 25.674 36.773C25.668 36.731 25.702 36.703 25.751 36.703ZM18.898 38.157C19.51 38.157 20.13 38.157 20.749 38.157C20.805 38.157 20.839 38.199 20.819 38.247C20.749 38.477 20.673 38.713 20.596 38.964C20.513 39.228 20.429 39.5 20.332 39.792C20.311 39.855 20.249 39.91 20.179 39.91C19.455 39.91 18.732 39.91 18.008 39.91C17.945 39.91 17.925 39.854 17.959 39.792C18.105 39.5 18.251 39.228 18.383 38.964C18.515 38.714 18.64 38.477 18.759 38.247C18.779 38.199 18.842 38.157 18.898 38.157ZM21.096 38.157C21.715 38.157 22.335 38.157 22.947 38.157C23.003 38.157 23.044 38.199 23.037 38.247C23.016 38.477 22.995 38.713 22.967 38.964C22.939 39.228 22.911 39.5 22.884 39.792C22.877 39.855 22.821 39.91 22.759 39.91C22.035 39.91 21.312 39.91 20.588 39.91C20.525 39.91 20.491 39.854 20.505 39.792C20.595 39.5 20.679 39.228 20.755 38.964C20.832 38.714 20.901 38.477 20.971 38.247C20.985 38.199 21.041 38.157 21.096 38.157ZM23.295 38.157C23.914 38.157 24.533 38.157 25.153 38.157C25.202 38.157 25.257 38.199 25.257 38.247C25.285 38.477 25.313 38.713 25.34 38.964C25.375 39.228 25.403 39.5 25.437 39.792C25.444 39.855 25.402 39.91 25.34 39.91C24.616 39.91 23.893 39.91 23.169 39.91C23.099 39.91 23.058 39.854 23.058 39.792C23.086 39.5 23.107 39.228 23.128 38.964C23.149 38.714 23.17 38.477 23.191 38.247C23.198 38.199 23.239 38.157 23.295 38.157ZM26.029 38.157C26.53 38.157 27.024 38.157 27.518 38.157C28.019 38.157 28.513 38.157 29.014 38.157C29.07 38.157 29.139 38.199 29.16 38.247C29.271 38.477 29.39 38.713 29.515 38.964C29.647 39.228 29.786 39.5 29.926 39.792C29.961 39.855 29.926 39.91 29.863 39.91C29.285 39.91 28.701 39.91 28.117 39.91C27.533 39.91 26.955 39.91 26.371 39.91C26.308 39.91 26.246 39.854 26.232 39.792C26.176 39.5 26.128 39.228 26.079 38.964C26.037 38.714 25.989 38.477 25.947 38.247C25.939 38.199 25.974 38.157 26.029 38.157ZM20.185 35.61C20.651 35.61 21.11 35.61 21.577 35.61C21.619 35.61 21.647 35.638 21.633 35.666C21.598 35.791 21.556 35.923 21.508 36.063C21.466 36.202 21.418 36.348 21.376 36.501C21.362 36.529 21.313 36.557 21.272 36.557C20.75 36.557 20.228 36.557 19.706 36.557C19.664 36.557 19.643 36.529 19.657 36.501C19.734 36.348 19.81 36.202 19.887 36.063C19.957 35.924 20.026 35.792 20.089 35.666C20.101 35.638 20.143 35.61 20.185 35.61ZM13.867 9.985H34.017C34.4 9.985 34.713 10.298 34.713 10.681V25.299C34.713 25.682 34.4 25.995 34.017 25.995H13.867C13.484 25.995 13.171 25.682 13.171 25.299V10.68C13.171 10.298 13.484 9.985 13.867 9.985ZM11.432 5.302H36.452C37.023 5.302 37.544 5.539 37.92 5.914C38.303 6.297 38.539 6.819 38.539 7.389V28.59C38.539 29.161 38.302 29.682 37.92 30.058C37.544 30.441 37.022 30.677 36.452 30.677H33.564V41.601C33.564 42.074 33.369 42.506 33.056 42.819C32.736 43.139 32.305 43.334 31.831 43.334H16.052C15.572 43.334 15.141 43.139 14.827 42.819C14.514 42.506 14.319 42.075 14.319 41.601V30.677H11.432C10.861 30.677 10.34 30.44 9.957 30.058C9.581 29.682 9.345 29.16 9.345 28.59V7.389C9.345 6.818 9.582 6.297 9.957 5.914C10.339 5.538 10.861 5.302 11.432 5.302ZM36.452 6.693H11.432C11.244 6.693 11.07 6.776 10.945 6.902C10.82 7.027 10.736 7.201 10.736 7.389V28.59C10.736 28.778 10.819 28.952 10.945 29.077C11.07 29.202 11.244 29.286 11.432 29.286H15.711V41.601C15.711 41.691 15.746 41.775 15.808 41.838C15.871 41.901 15.954 41.942 16.052 41.942H31.832C31.929 41.942 32.013 41.9 32.076 41.838C32.139 41.775 32.173 41.692 32.173 41.601V29.286H36.452C36.64 29.286 36.814 29.203 36.939 29.077C37.064 28.951 37.148 28.778 37.148 28.59V7.389C37.148 7.201 37.065 7.027 36.939 6.902C36.813 6.777 36.64 6.693 36.452 6.693Z" fill="white"/>
</svg>
