<svg width="56" height="64" viewBox="0 0 56 64" fill="none" xmlns="http://www.w3.org/2000/svg">
<path d="M55.4797 19.0825V21.3925H33.0098V16.5125H52.9297C54.3396 16.5124 55.4797 17.6625 55.4797 19.0825Z" fill="white"/>
<path d="M55.4797 22.8925H33.0098V26.5724H55.4797V22.8925Z" fill="white"/>
<path d="M55.4797 28.0724V33.2424C55.4797 34.6624 54.3396 35.8124 52.9297 35.8124H33.0098V28.0724H55.4797Z" fill="white"/>
<path d="M28.95 11.5026H28.6899V16.0526C28.76 16.1525 28.7899 16.2825 28.7899 16.4125C28.7899 16.5426 28.76 16.6625 28.6899 16.7725C28.5699 17.0026 28.3199 17.1625 28.0399 17.1625H3.47998C3.18994 17.1625 2.93994 17.0026 2.81995 16.7625C2.76001 16.6625 2.72998 16.5426 2.72998 16.4125C2.72998 16.2825 2.76001 16.1625 2.81995 16.0626V11.5026H2.44995C1.08984 11.5626 0 12.6926 0 14.0626V60.9426C0 62.3525 1.1499 63.5026 2.56995 63.5026H28.95C30.3599 63.5026 31.51 62.3525 31.51 60.9426V14.0626C31.51 12.6525 30.3599 11.5026 28.95 11.5026ZM10.3799 57.2825C10.3799 57.8325 9.92993 58.2825 9.37988 58.2825H6.90991C6.34985 58.2825 5.90991 57.8325 5.90991 57.2825V54.4326C5.90991 53.8726 6.34985 53.4326 6.90991 53.4326H9.37988C9.92993 53.4326 10.3799 53.8726 10.3799 54.4326V57.2825ZM10.3799 49.4426C10.3799 49.9926 9.92993 50.4426 9.37988 50.4426H6.90991C6.34985 50.4426 5.90991 49.9926 5.90991 49.4426V46.5925C5.90991 46.0425 6.34985 45.5925 6.90991 45.5925H9.37988C9.92993 45.5925 10.3799 46.0425 10.3799 46.5925V49.4426ZM10.3799 41.6126C10.3799 42.1625 9.92993 42.6126 9.37988 42.6126H6.90991C6.34985 42.6126 5.90991 42.1625 5.90991 41.6126V38.7625C5.90991 38.2125 6.34985 37.7625 6.90991 37.7625H9.37988C9.92993 37.7625 10.3799 38.2125 10.3799 38.7625V41.6126ZM17.99 57.2825C17.99 57.8325 17.5399 58.2825 16.99 58.2825H14.5199C13.97 58.2825 13.5199 57.8325 13.5199 57.2825V54.4326C13.5199 53.8726 13.97 53.4326 14.5199 53.4326H16.99C17.5399 53.4326 17.99 53.8726 17.99 54.4326V57.2825ZM17.99 49.4426C17.99 49.9926 17.5399 50.4426 16.99 50.4426H14.5199C13.97 50.4426 13.5199 49.9926 13.5199 49.4426V46.5925C13.5199 46.0425 13.97 45.5925 14.5199 45.5925H16.99C17.5399 45.5925 17.99 46.0425 17.99 46.5925V49.4426ZM17.99 41.6126C17.99 42.1625 17.5399 42.6126 16.99 42.6126H14.5199C13.97 42.6126 13.5199 42.1625 13.5199 41.6126V38.7625C13.5199 38.2125 13.97 37.7625 14.5199 37.7625H16.99C17.5399 37.7625 17.99 38.2125 17.99 38.7625V41.6126ZM25.6099 57.2825C25.6099 57.8325 25.1599 58.2825 24.6099 58.2825H22.1399C21.5798 58.2825 21.1399 57.8325 21.1399 57.2825V54.4326C21.1399 53.8726 21.5798 53.4326 22.1399 53.4326H24.6099C25.1599 53.4326 25.6099 53.8726 25.6099 54.4326V57.2825ZM25.6099 49.4426C25.6099 49.9926 25.1599 50.4426 24.6099 50.4426H22.1399C21.5798 50.4426 21.1399 49.9926 21.1399 49.4426V46.5925C21.1399 46.0425 21.5798 45.5925 22.1399 45.5925H24.6099C25.1599 45.5925 25.6099 46.0425 25.6099 46.5925V49.4426ZM25.6099 41.6126C25.6099 42.1625 25.1599 42.6126 24.6099 42.6126H22.1399C21.5798 42.6126 21.1399 42.1625 21.1399 41.6126V38.7625C21.1399 38.2125 21.5798 37.7625 22.1399 37.7625H24.6099C25.1599 37.7625 25.6099 38.2125 25.6099 38.7625V41.6126ZM26.76 31.6425C26.76 32.6226 26.0299 33.4025 25.1299 33.4025H6.37988C5.47998 33.4025 4.76001 32.6226 4.76001 31.6425V22.0325C4.76001 21.0626 5.47998 20.2825 6.37988 20.2825H25.1299C26.0299 20.2825 26.76 21.0626 26.76 22.0325V31.6425Z" fill="white"/>
<path d="M27.0603 0.3225C27.0503 0.31255 27.0403 0.30254 27.0403 0.29253C26.9303 0.16253 26.7903 0.0724999 26.6403 0.0325199C26.5902 0.0124999 26.5503 0.0125 26.5004 0.00254996H26.4503C26.3003 0.00254996 26.1403 0.04253 26.0004 0.1425L23.7703 1.75255L21.5303 0.1425C21.2704 -0.04433 20.9202 -0.04433 20.6603 0.1425L18.4203 1.75255L16.1903 0.1425C15.9303 -0.0475 15.5802 -0.0475 15.3103 0.1425L13.0802 1.75255L10.8502 0.1425C10.5875 -0.04714 10.2331 -0.04714 9.97036 0.1425L7.74036 1.75255L5.51038 0.15251C5.45032 0.10252 5.38025 0.0625399 5.31031 0.0425199C5.21033 0.0124899 5.12025 0.00253995 5.02027 0.00253995C4.92029 0.0124899 4.82032 0.0425198 4.73035 0.0824998C4.64026 0.13256 4.56031 0.19256 4.49036 0.28252C4.4303 0.34252 4.39026 0.42253 4.36023 0.5125C4.3302 0.59252 4.32031 0.67253 4.32031 0.75255V14.9125C4.32031 15.3267 4.65613 15.6625 5.07031 15.6625H26.4403C26.8545 15.6625 27.1903 15.3267 27.1903 14.9125V0.7625C27.1903 0.61254 27.1503 0.46252 27.0603 0.3225ZM21.3637 12.1478H10.1478C9.73377 12.1478 9.39783 11.8119 9.39783 11.3978C9.39783 10.9838 9.73377 10.6478 10.1478 10.6478H21.3637C21.7777 10.6478 22.1137 10.9838 22.1137 11.3978C22.1137 11.8119 21.7777 12.1478 21.3637 12.1478ZM21.3637 7.62145H10.1478C9.73377 7.62145 9.39783 7.28551 9.39783 6.87145C9.39783 6.45739 9.73377 6.12145 10.1478 6.12145H21.3637C21.7777 6.12145 22.1137 6.45739 22.1137 6.87145C22.1137 7.28551 21.7777 7.62145 21.3637 7.62145Z" fill="white"/>
</svg>
