<svg width="82" height="94" viewBox="0 0 82 94" fill="none" xmlns="http://www.w3.org/2000/svg">
<path d="M30.47 29.21H50.75C51.39 29.21 51.91 28.69 51.91 28.05C51.91 27.41 51.39 26.89 50.75 26.89H30.47C29.83 26.89 29.31 27.41 29.31 28.05C29.31 28.69 29.83 29.21 30.47 29.21ZM50.75 31.24H30.47C29.83 31.24 29.31 31.76 29.31 32.4C29.31 33.04 29.83 33.56 30.47 33.56H50.75C51.39 33.56 51.91 33.04 51.91 32.4C51.91 31.75 51.39 31.24 50.75 31.24ZM30.47 37.9H42.64C43.28 37.9 43.8 37.38 43.8 36.74C43.8 36.1 43.28 35.58 42.64 35.58H30.47C29.83 35.58 29.31 36.1 29.31 36.74C29.31 37.38 29.83 37.9 30.47 37.9ZM51.24 44.41H30.96C30.32 44.41 29.8 44.93 29.8 45.57C29.8 46.21 30.32 46.73 30.96 46.73H51.24C51.88 46.73 52.4 46.21 52.4 45.57C52.4 44.93 51.88 44.41 51.24 44.41ZM51.24 48.75H30.96C30.32 48.75 29.8 49.27 29.8 49.91C29.8 50.55 30.32 51.07 30.96 51.07H51.24C51.88 51.07 52.4 50.55 52.4 49.91C52.4 49.27 51.88 48.75 51.24 48.75ZM31.01 55.81H43.18C43.82 55.81 44.34 55.29 44.34 54.65C44.34 54.01 43.82 53.49 43.18 53.49H31.01C30.37 53.49 29.85 54.01 29.85 54.65C29.85 55.29 30.37 55.81 31.01 55.81ZM21.2 28.92V35.87C21.2 36.51 20.68 37.03 20.04 37.03H13.09C12.45 37.03 11.93 36.51 11.93 35.87V28.92C11.93 28.28 12.45 27.76 13.09 27.76H20.04C20.68 27.76 21.2 28.28 21.2 28.92ZM18.88 30.08H14.24V34.72H18.88V30.08ZM21.61 47.13V54.08C21.61 54.72 21.09 55.24 20.45 55.24H13.5C12.86 55.24 12.34 54.72 12.34 54.08V47.13C12.34 46.49 12.86 45.97 13.5 45.97H20.45C21.1 45.97 21.61 46.49 21.61 47.13ZM19.3 48.29H14.66V52.93H19.3V48.29ZM21.74 65.88V72.83C21.74 73.47 21.22 73.99 20.58 73.99H13.63C12.99 73.99 12.47 73.47 12.47 72.83V65.88C12.47 65.24 12.99 64.72 13.63 64.72H20.58C21.22 64.72 21.74 65.24 21.74 65.88ZM19.42 67.04H14.78V71.68H19.42V67.04ZM48.27 63.85H31.01C30.37 63.85 29.85 64.37 29.85 65.01C29.85 65.65 30.37 66.17 31.01 66.17H48.27C48.91 66.17 49.43 65.65 49.43 65.01C49.43 64.37 48.91 63.85 48.27 63.85ZM47.79 68.2H31.01C30.37 68.2 29.85 68.72 29.85 69.36C29.85 70 30.37 70.52 31.01 70.52H47.79C48.43 70.52 48.95 70 48.95 69.36C48.95 68.72 48.43 68.2 47.79 68.2ZM43.18 72.55H31.01C30.37 72.55 29.85 73.07 29.85 73.71C29.85 74.35 30.37 74.87 31.01 74.87H43.18C43.82 74.87 44.34 74.35 44.34 73.71C44.34 73.07 43.82 72.55 43.18 72.55ZM81.33 34.72L64.92 67.35V91.94C64.92 92.58 64.4 93.1 63.76 93.1H1.16C0.52 93.1 0 92.58 0 91.94V6.71C0 6.07 0.52 5.55 1.16 5.55H26.33C26.63 2.44 29.26 0 32.45 0C35.64 0 38.28 2.44 38.58 5.55H63.75C64.39 5.55 64.91 6.07 64.91 6.71V39.64L70.2 29.13C71.74 26.06 75.5 24.82 78.56 26.37C81.64 27.9 82.88 31.66 81.33 34.72ZM72.27 30.17L71.85 31.01L78.84 34.53L79.26 33.69C80.23 31.76 79.45 29.41 77.52 28.44C75.6 27.46 73.24 28.24 72.27 30.17ZM19.52 16.42H45.4V7.86H19.52V16.42ZM17.21 17.58V14.41H8.87V84.23H56.05V76.95L52.82 79.94C52.6 80.14 52.32 80.25 52.03 80.25C51.85 80.25 51.67 80.21 51.51 80.13C51.08 79.91 50.83 79.45 50.88 78.97L52.44 64.59C52.45 64.45 52.49 64.32 52.56 64.19L56.05 57.25V14.41H47.71V17.58C47.71 18.22 47.19 18.74 46.55 18.74H18.36C17.72 18.74 17.21 18.22 17.21 17.58ZM57.61 65.44L70.8 39.23L68.34 37.99L55.15 64.2L57.61 65.44ZM60.64 69.56L54.57 66.5L53.53 76.14L60.64 69.56ZM75.32 41.51L72.86 40.27L59.68 66.48L62.14 67.72L75.32 41.51ZM76.36 39.44L77.79 36.59L70.8 33.07L69.37 35.92L76.36 39.44ZM62.6 7.87H47.71V12.1H57.2C57.84 12.1 58.36 12.62 58.36 13.26V52.65L62.59 44.24V7.87H62.6ZM28.68 5.55H36.25C35.96 3.72 34.38 2.32 32.47 2.32C30.55 2.32 28.97 3.72 28.68 5.55ZM62.6 90.78V70.9L58.37 74.81V85.39C58.37 86.03 57.85 86.55 57.21 86.55H7.71C7.07 86.55 6.55 86.03 6.55 85.39V13.26C6.55 12.62 7.07 12.1 7.71 12.1H17.2V7.87H2.32V90.79H62.6V90.78Z" fill="white"/>
</svg>
