<svg xmlns="http://www.w3.org/2000/svg" data-name="Layer 11" viewBox="0 0 100 125" x="0px" y="0px"><title>Artboard 7</title><path d="M68.89,36.37V33.22h0V14.64C68.89,10.94,60.21,9,51.64,9s-17.25,1.94-17.25,5.64v31h0v6.1c-1.41-.12-2.84-.19-4.26-.19C22.37,51.53,14,53.19,14,56.85h0V79.92h0v5.76c0,3.5,7.94,5.2,15.26,5.3.28,0,.57,0,.87,0a42,42,0,0,0,10.82-1.26c3.52-1,5.31-2.35,5.31-4.06v-1.8c1.68.17,3.42.27,5.24.27v1.2c0,3.71,8.68,5.64,17.25,5.64S86,89.06,86,85.36V79.17h0V66.78h0V42C86,38.33,77.42,36.4,68.89,36.37ZM84,79.17h0c0,1.23-5.38,3.64-15.25,3.64a45.46,45.46,0,0,1-10.1-1l-.08,0c-3.72-.89-5.07-2-5.07-2.59h0v-3.4c3,1.83,8.81,2.76,14.33,2.83.29,0,.61,0,.92,0,6.08,0,12.2-1,15.25-2.87ZM43.76,53.84l-.48-.23-.13-.06-.65-.26-.2-.07-.49-.17L41.53,53l-.45-.13-.28-.08-.45-.12-.27-.07-.5-.11-.21,0-.69-.14-.14,0-.54-.1-.25,0-.4-.06-.27,0-.35,0-.25,0h-.09V48.39c3,1.87,9.08,2.84,15.1,2.85v4.19a52.34,52.34,0,0,1-6-.35l0,0-.13-.12-.3-.27-.17-.13-.32-.23-.2-.13L44,54Zm22.32-17.4q.44-.22.82-.45v.41Zm.82-15.61c0,1.24-5.38,3.64-15.25,3.64s-15.25-2.41-15.25-3.64V17.42c3.05,1.89,9.17,2.87,15.25,2.87s12.2-1,15.25-2.87ZM51.64,26.48c6.08,0,12.2-1,15.25-2.87V27c0,1.24-5.38,3.64-15.25,3.64S36.39,28.26,36.39,27V23.61C39.44,25.5,45.56,26.48,51.64,26.48Zm0,6.19c6.08,0,12.2-1,15.25-2.87v3.42c0,1.24-5.38,3.64-15.25,3.64s-15.25-2.41-15.25-3.64V29.8C39.44,31.69,45.56,32.67,51.64,32.67Zm0,6.19c.89,0,1.79,0,2.67-.07-1.74.86-2.82,1.93-2.82,3.22v1c-9.77,0-15.11-2.41-15.11-3.63h0V36C39.44,37.88,45.56,38.86,51.64,38.86ZM51.5,60.61v1c-1.81,0-3.58-.1-5.23-.27V57.15c1.7.17,3.44.28,5.23.28v3.19Zm-5.23,2.75c1.65.17,3.4.26,5.23.26v3.15h0v1.68c-1.81,0-3.54-.11-5.23-.28ZM51.5,45v4.19c-9.77,0-15.1-2.41-15.1-3.64h0v-3.4C39.41,44.05,45.46,45,51.5,45ZM44.26,62.62c0,1.13-5,3.32-14.13,3.32S16,63.75,16,62.62v-3c2.94,1.75,8.67,2.58,14.13,2.58s11.2-.83,14.13-2.58ZM30.13,67.94c5.46,0,11.19-.83,14.13-2.58v3c0,1.13-5,3.32-14.13,3.32S16,69.51,16,68.39v-3C18.94,67.12,24.68,67.94,30.13,67.94Zm0,5.76c5.46,0,11.19-.83,14.13-2.58v3c0,.21-.17.46-.52.72a1,1,0,0,0-.31.21c-1.76,1.11-6.31,2.39-13.3,2.39C21,77.47,16,75.28,16,74.15v-3C18.94,72.88,24.68,73.71,30.13,73.71ZM16,79.92v-3c2.94,1.76,8.68,2.58,14.13,2.58s11.19-.83,14.13-2.58v3c0,.25-.42.84-2,1.5l-.08,0A25.82,25.82,0,0,1,35.28,83a47.45,47.45,0,0,1-5.15.26h-.78C20.71,83.1,16,81,16,79.92h0Zm30.26-5.77V70.21c1.66.17,3.41.26,5.23.26V75.3c-1.84,0-3.57-.11-5.23-.28ZM84,73c0,1.23-5.38,3.64-15.25,3.64-.27,0-.54,0-.84,0C58.44,76.46,53.5,74.17,53.5,73V69.57c3,1.83,8.81,2.76,14.33,2.83.29,0,.61,0,.92,0,6.08,0,12.2-1,15.25-2.87Zm0-6.19h0c0,1.23-5.38,3.64-15.25,3.64-.27,0-.54,0-.84,0C58.44,70.27,53.5,68,53.5,66.78h0V63.36c3.05,1.89,9.17,2.87,15.25,2.87s12.2-1,15.25-2.87v3.42Zm0-6.19c0,1.24-5.38,3.64-15.25,3.64S53.5,61.83,53.5,60.59V57.17C56.54,59.06,62.66,60,68.75,60s12.2-1,15.25-2.87Zm0-6.19C84,55.64,78.62,58,68.75,58S53.5,55.64,53.5,54.4V51c3.05,1.89,9.17,2.87,15.26,2.87S80.95,52.87,84,51Zm0-6.19c0,1.24-5.38,3.64-15.25,3.64S53.5,49.44,53.5,48.21V44.79c3.05,1.89,9.17,2.87,15.25,2.87s12.2-1,15.25-2.87ZM84,42c0,1.24-5.38,3.64-15.25,3.64S53.5,43.25,53.5,42s5.07-3.49,14.36-3.63h.89C78.62,38.37,84,40.78,84,42ZM51.64,11c9.87,0,15.25,2.41,15.25,3.64s-5.38,3.64-15.25,3.64-15.25-2.41-15.25-3.64S41.77,11,51.64,11ZM30.13,53.53a50.22,50.22,0,0,1,5.15.26c5.18.55,8.18,1.8,8.87,2.8a.44.44,0,0,1,.11.26c0,1.13-5,3.32-14.13,3.32S16,58,16,56.86,21,53.53,30.13,53.53ZM40.41,87.82A40,40,0,0,1,30.13,89c-.24,0-.49,0-.78,0C20.71,88.86,16,86.74,16,85.68v-3c2.82,1.67,8.2,2.52,13.3,2.59h.83A49.38,49.38,0,0,0,35.49,85a27.58,27.58,0,0,0,7.39-1.63l.08,0a10.08,10.08,0,0,0,1.3-.64v3C44.26,86,43.57,86.94,40.41,87.82Zm5.85-5.92V77c1.68.17,3.42.27,5.23.27v1.86h0v3A44.81,44.81,0,0,1,46.26,81.89ZM68.75,89c-9.87,0-15.25-2.41-15.25-3.64V82a16.06,16.06,0,0,0,4.67,1.76h.08a47.6,47.6,0,0,0,10.5,1.07c6.08,0,12.2-1,15.25-2.87v3.42C84,86.59,78.62,89,68.75,89Z"/><text x="0" y="115" fill="#000000" font-size="5px" font-weight="bold" font-family="'Helvetica Neue', Helvetica, Arial-Unicode, Arial, Sans-serif">Created by Muhammad Ikhsan</text><text x="0" y="120" fill="#000000" font-size="5px" font-weight="bold" font-family="'Helvetica Neue', Helvetica, Arial-Unicode, Arial, Sans-serif">from the Noun Project</text></svg>