<svg width="80" height="70" viewBox="0 0 80 70" fill="none" xmlns="http://www.w3.org/2000/svg">
<path d="M30.8762 50.0845L12.9852 39.7605C12.3876 39.4167 11.6219 39.6199 11.2743 40.2175C10.9306 40.8152 11.1337 41.5808 11.7314 41.9284L29.6184 52.2524C29.8137 52.3657 30.0324 52.4204 30.2434 52.4204C30.677 52.4204 31.0949 52.1977 31.3293 51.7954C31.6769 51.1977 31.4739 50.4321 30.8762 50.0845ZM37.7278 40.7173C38.0716 40.1196 37.8685 39.354 37.2708 39.0064L19.3838 28.6824C18.7862 28.3347 18.0205 28.5417 17.6729 29.1394C17.3292 29.7371 17.5323 30.5027 18.1299 30.8503L36.0169 41.1783C36.2123 41.2916 36.431 41.3463 36.6419 41.3463C37.0755 41.3424 37.4974 41.1196 37.7278 40.7173ZM34.0716 44.5454L16.1846 34.2214C15.587 33.8776 14.8213 34.0808 14.4737 34.6784C14.13 35.2761 14.3331 36.0417 14.9308 36.3893L32.8178 46.7133C33.0131 46.8266 33.2318 46.8813 33.4428 46.8813C33.8764 46.8813 34.2943 46.6586 34.5287 46.2563C34.8763 45.6547 34.6732 44.8891 34.0716 44.5454ZM80.0016 48.0923C80.0016 59.9123 70.3805 69.5303 58.5606 69.5303C48.8887 69.5303 40.6936 63.0967 38.0296 54.2843L32.0999 64.5573C31.4046 65.7604 30.139 66.4362 28.8382 66.4362C28.2015 66.4362 27.557 66.276 26.9671 65.9323L1.87714 51.4443C0.0841426 50.4131 -0.533057 48.1123 0.502143 46.3154L24.0021 5.61236C24.549 4.66705 25.4005 4.04986 26.463 3.81936L43.592 0.143559C46.7912 -0.543941 49.9279 1.29586 50.8928 4.42086L52.135 8.46386C54.1662 8.27245 56.2795 8.1748 58.4358 8.1748C68.053 8.1748 78.4048 10.1631 78.4048 14.5264C78.4048 18.8936 68.0528 20.8858 58.4358 20.8858C57.6077 20.8858 56.7717 20.8702 55.9397 20.8389L55.9436 20.8506C56.2601 21.874 56.1429 22.9053 55.6116 23.8311L53.6585 27.2139C55.2327 26.8429 56.8733 26.6475 58.5608 26.6475C70.3848 26.6475 80.0016 36.2684 80.0016 48.0923ZM52.8886 10.9083L55.162 18.3028C56.2323 18.3536 57.3261 18.3848 58.4393 18.3848C63.3299 18.3848 67.9159 17.8692 71.3453 16.9317C74.7906 15.9903 75.9039 14.9044 75.9039 14.5294C75.9039 14.2833 75.1305 13.1622 71.3453 12.131C67.9156 11.1974 63.3297 10.6818 58.4393 10.6818C56.5448 10.6779 54.6816 10.7559 52.8886 10.9083ZM37.2636 50.6033C37.166 49.779 37.1152 48.9431 37.1152 48.0916C37.1152 39.2752 42.4629 31.6856 50.0842 28.3966L53.4397 22.5841C53.6233 22.2638 53.6585 21.9474 53.5491 21.588L53.2756 20.6934C49.4709 20.4044 45.8654 19.7872 43.1666 18.8184C42.2721 19.377 41.233 19.6739 40.1822 19.6739C39.2291 19.6739 38.2642 19.4317 37.3814 18.92C34.7017 17.3731 33.7798 13.9278 35.3267 11.2481C36.0807 9.94731 37.2915 9.01761 38.7408 8.62701C40.1901 8.23641 41.7056 8.43951 43.0064 9.18951C45.6705 10.7247 46.5962 14.1309 45.0923 16.8067C45.2369 16.8497 45.3814 16.8887 45.5338 16.9317C47.5182 17.4747 49.8932 17.8731 52.4869 18.1153L48.5064 5.15831C47.9282 3.27941 46.0455 2.17781 44.1236 2.59191L26.9946 6.26771C26.6235 6.34583 26.3617 6.53724 26.1703 6.86927L2.67033 47.5643C2.33049 48.1502 2.54142 48.9354 3.12736 49.2752L28.2174 63.7632C28.5064 63.9311 28.8463 63.9741 29.1705 63.8882C29.4947 63.8022 29.7642 63.5952 29.9322 63.3061L37.2636 50.6033ZM42.6894 15.9153C42.7598 15.8176 42.8301 15.72 42.8926 15.6106C43.7519 14.1223 43.2402 12.2122 41.752 11.3567C41.2715 11.0793 40.7364 10.9387 40.1973 10.9387C39.9277 10.9387 39.6543 10.9739 39.3848 11.0481C38.5801 11.2629 37.9082 11.7786 37.4903 12.5012C36.6348 13.9895 37.1465 15.8996 38.6309 16.759C39.0527 17.0012 39.5098 17.134 39.9668 17.1652C39.0136 16.4113 38.4707 15.5324 38.4707 14.5324C38.4707 13.841 39.0293 13.2824 39.7207 13.2824C40.4121 13.2824 40.9707 13.841 40.9707 14.5324C40.9707 14.7707 41.4355 15.3098 42.6894 15.9153ZM77.5014 48.0913C77.5014 37.6463 69.0053 29.1503 58.5604 29.1503C48.1154 29.1503 39.6194 37.6464 39.6194 48.0913C39.6194 58.5323 48.1155 67.0293 58.5604 67.0293C69.0054 67.0254 77.5014 58.5332 77.5014 48.0913Z" fill="#4D4D4D"/>
<path d="M54.135 47.2636C55.86 47.2636 57.27 45.8625 57.27 44.1318C57.27 42.4011 55.8675 41 54.135 41C52.4025 41 51 42.4011 51 44.1318C51 45.8625 52.4025 47.2636 54.135 47.2636ZM54.135 42.5059C55.035 42.5059 55.77 43.2401 55.77 44.1392C55.77 45.0383 55.035 45.7725 54.135 45.7725C53.235 45.7725 52.5 45.0383 52.5 44.1392C52.5 43.2401 53.235 42.5059 54.135 42.5059Z" fill="#4D4D4D"/>
<path d="M62.8655 49.7364C61.1404 49.7364 59.7305 51.1375 59.7305 52.8682C59.7305 54.5989 61.133 56 62.8655 56C64.5979 56 66.0004 54.5989 66.0004 52.8682C66.0004 51.1375 64.5979 49.7364 62.8655 49.7364ZM62.8655 54.4941C61.9655 54.4941 61.2305 53.7598 61.2305 52.8608C61.2305 51.9617 61.9655 51.2274 62.8655 51.2274C63.7655 51.2274 64.5004 51.9617 64.5004 52.8608C64.5004 53.7598 63.7655 54.4941 62.8655 54.4941Z" fill="#4D4D4D"/>
<path d="M52.4091 54.5838C52.5591 54.7336 52.7466 54.8011 52.9416 54.8011C53.1366 54.8011 53.3241 54.7262 53.4741 54.5838L64.5891 43.4802C64.8816 43.188 64.8816 42.716 64.5891 42.4238C64.2965 42.1316 63.824 42.1316 63.5316 42.4238L52.4166 53.5274C52.1241 53.8196 52.1241 54.2916 52.4166 54.5838H52.4091Z" fill="#4D4D4D"/>
</svg>
