<svg width="72" height="82" viewBox="0 0 72 82" fill="none" xmlns="http://www.w3.org/2000/svg">
<path d="M54.89 27.37V24.22V5.64C54.89 1.94 46.21 0 37.64 0C29.07 0 20.39 1.94 20.39 5.64V36.64V42.74C18.98 42.62 17.55 42.55 16.13 42.55C8.37 42.53 0 44.19 0 47.85V70.92V76.68C0 80.18 7.94 81.88 15.26 81.98C15.54 81.98 15.83 81.98 16.13 81.98C19.7761 82.0315 23.4133 81.6079 26.95 80.72C30.47 79.72 32.26 78.37 32.26 76.66V74.86C33.94 75.03 35.68 75.13 37.5 75.13V76.33C37.5 80.04 46.18 81.97 54.75 81.97C63.32 81.97 72 80.06 72 76.36V70.17V57.78V33C72 29.33 63.42 27.4 54.89 27.37ZM70 70.17C70 71.4 64.62 73.81 54.75 73.81C51.3566 73.8547 47.9688 73.5193 44.65 72.81H44.57C40.85 71.92 39.5 70.81 39.5 70.22V66.82C42.5 68.65 48.31 69.58 53.83 69.65C54.12 69.65 54.44 69.65 54.75 69.65C60.83 69.65 66.95 68.65 70 66.78V70.17ZM29.76 44.84L29.28 44.61L29.15 44.55L28.5 44.29L28.3 44.22L27.81 44.05L27.53 44L27.08 43.87L26.8 43.79L26.35 43.67L26.08 43.6L25.58 43.49H25.37L24.68 43.35H24.54L24 43.25H23.75L23.35 43.19H23.08H22.73H22.48H22.39V39.39C25.39 41.26 31.47 42.23 37.49 42.24V46.43C35.4849 46.4284 33.4816 46.3115 31.49 46.08L31.36 45.96L31.06 45.69L30.89 45.56L30.57 45.33L30.37 45.2L30 45L29.76 44.84ZM52.08 27.44C52.3733 27.2933 52.6467 27.1433 52.9 26.99V27.4L52.08 27.44ZM52.9 11.83C52.9 13.07 47.52 15.47 37.65 15.47C27.78 15.47 22.4 13.06 22.4 11.83V8.42C25.45 10.31 31.57 11.29 37.65 11.29C43.73 11.29 49.85 10.29 52.9 8.42V11.83ZM37.64 17.48C43.72 17.48 49.84 16.48 52.89 14.61V18C52.89 19.24 47.51 21.64 37.64 21.64C27.77 21.64 22.39 19.26 22.39 18V14.61C25.44 16.5 31.56 17.48 37.64 17.48ZM37.64 23.67C43.72 23.67 49.84 22.67 52.89 20.8V24.22C52.89 25.46 47.51 27.86 37.64 27.86C27.77 27.86 22.39 25.45 22.39 24.22V20.8C25.44 22.69 31.56 23.67 37.64 23.67ZM37.64 29.86C38.53 29.86 39.43 29.86 40.31 29.79C38.57 30.65 37.49 31.72 37.49 33.01V34.01C27.72 34.01 22.38 31.6 22.38 30.38V27C25.44 28.88 31.56 29.86 37.64 29.86ZM37.5 51.61V52.61C35.69 52.61 33.92 52.51 32.27 52.34V48.15C33.97 48.32 35.71 48.43 37.5 48.43V51.62V51.61ZM32.27 54.36C33.92 54.53 35.67 54.62 37.5 54.62V57.77V59.45C35.69 59.45 33.96 59.34 32.27 59.17V54.36ZM37.5 36V40.19C27.73 40.19 22.4 37.78 22.4 36.55V33.15C25.41 35.05 31.46 36 37.5 36ZM30.26 53.62C30.26 54.75 25.26 56.94 16.13 56.94C7 56.94 2 54.75 2 53.62V50.62C4.94 52.37 10.67 53.2 16.13 53.2C21.59 53.2 27.33 52.37 30.26 50.62V53.62ZM16.13 58.94C21.59 58.94 27.32 58.11 30.26 56.36V59.36C30.26 60.49 25.26 62.68 16.13 62.68C7 62.68 2 60.51 2 59.39V56.39C4.94 58.12 10.68 58.94 16.13 58.94ZM16.13 64.7C21.59 64.7 27.32 63.87 30.26 62.12V65.12C30.26 65.33 30.09 65.58 29.74 65.84C29.6244 65.8899 29.5192 65.9611 29.43 66.05C27.67 67.16 23.12 68.44 16.13 68.44C7 68.47 2 66.28 2 65.15V62.15C4.94 63.88 10.68 64.71 16.13 64.71V64.7ZM2 70.92V67.92C4.94 69.68 10.68 70.5 16.13 70.5C21.58 70.5 27.32 69.67 30.26 67.92V70.92C30.26 71.17 29.84 71.76 28.26 72.42H28.18C25.9634 73.2609 23.6416 73.7926 21.28 74C19.5693 74.1799 17.8501 74.2667 16.13 74.26H15.35C6.71 74.1 2 72 2 70.92ZM32.26 65.15V61.21C33.92 61.38 35.67 61.47 37.49 61.47V66.3C35.65 66.3 33.92 66.19 32.26 66.02V65.15ZM70 64C70 65.23 64.62 67.64 54.75 67.64C54.48 67.64 54.21 67.64 53.91 67.64C44.44 67.46 39.5 65.17 39.5 64V60.57C42.5 62.4 48.31 63.33 53.83 63.4C54.12 63.4 54.44 63.4 54.75 63.4C60.83 63.4 66.95 62.4 70 60.53V64ZM70 57.81C70 59.04 64.62 61.45 54.75 61.45C54.48 61.45 54.21 61.45 53.91 61.45C44.44 61.27 39.5 59 39.5 57.78V54.36C42.55 56.25 48.67 57.23 54.75 57.23C60.83 57.23 66.95 56.23 70 54.36V57.78V57.81ZM70 51.62C70 52.86 64.62 55.26 54.75 55.26C44.88 55.26 39.5 52.83 39.5 51.59V48.17C42.54 50.06 48.66 51 54.75 51C60.84 51 66.95 50 70 48.13V51.62ZM70 45.43C70 46.64 64.62 49 54.75 49C44.88 49 39.5 46.64 39.5 45.4V42C42.55 43.89 48.67 44.87 54.76 44.87C60.85 44.87 66.95 43.87 70 42V45.43ZM70 39.24C70 40.48 64.62 42.88 54.75 42.88C44.88 42.88 39.5 40.44 39.5 39.21V35.79C42.55 37.68 48.67 38.66 54.75 38.66C60.83 38.66 66.95 37.66 70 35.79V39.24ZM70 33C70 34.24 64.62 36.64 54.75 36.64C44.88 36.64 39.5 34.25 39.5 33C39.5 31.75 44.57 29.51 53.86 29.37H54.75C64.62 29.37 70 31.78 70 33ZM37.64 2C47.51 2 52.89 4.41 52.89 5.64C52.89 6.87 47.51 9.28 37.64 9.28C27.77 9.28 22.39 6.87 22.39 5.64C22.39 4.41 27.77 2 37.64 2ZM16.13 44.53C17.85 44.5284 19.5689 44.6152 21.28 44.79C26.46 45.34 29.46 46.59 30.15 47.59C30.2142 47.6622 30.2529 47.7536 30.26 47.85C30.26 48.98 25.26 51.17 16.13 51.17C7 51.17 2 49 2 47.86C2 46.72 7 44.53 16.13 44.53ZM26.41 78.82C23.0489 79.6568 19.5933 80.0534 16.13 80C15.89 80 15.64 80 15.35 80C6.71 79.86 2 77.74 2 76.68V73.68C4.82 75.35 10.2 76.2 15.3 76.27H16.13C17.9202 76.2772 19.7096 76.1871 21.49 76C24.0165 75.7988 26.5033 75.2503 28.88 74.37H28.96C29.4081 74.1881 29.8426 73.9742 30.26 73.73V76.73C30.26 77 29.57 77.94 26.41 78.82ZM32.26 72.9V68C33.94 68.17 35.68 68.27 37.49 68.27V70.13V73.13C35.7435 73.152 33.9972 73.0719 32.26 72.89V72.9ZM54.75 80C44.88 80 39.5 77.59 39.5 76.36V73C40.9554 73.8264 42.5311 74.4203 44.17 74.76H44.25C47.6995 75.5048 51.2212 75.8637 54.75 75.83C60.83 75.83 66.95 74.83 70 72.96V76.38C70 77.59 64.62 80 54.75 80Z" fill="#4D4D4D"/>
</svg>
